<mxfile host="app.diagrams.net" modified="2023-04-30T12:36:09.363Z" agent="Mozilla/5.0 (Windows NT 10.0; Win64; x64) AppleWebKit/537.36 (KHTML, like Gecko) Chrome/112.0.0.0 Safari/537.36" etag="Qbb6qj56ttr2HcI3xMq-" version="21.2.3" type="device">
  <diagram name="Page-1" id="c4acf3e9-155e-7222-9cf6-157b1a14988f">
    <mxGraphModel dx="1434" dy="1896" grid="1" gridSize="10" guides="1" tooltips="1" connect="1" arrows="1" fold="1" page="1" pageScale="1" pageWidth="850" pageHeight="1100" background="none" math="0" shadow="0">
      <root>
        <mxCell id="0" />
        <mxCell id="1" parent="0" />
        <mxCell id="wnnIdokzic-47sQOdaia-4" value="" style="endArrow=diamondThin;endFill=1;endSize=24;html=1;rounded=0;entryX=1;entryY=0.5;entryDx=0;entryDy=0;exitX=0.019;exitY=0.294;exitDx=0;exitDy=0;exitPerimeter=0;" edge="1" parent="1" source="wnnIdokzic-47sQOdaia-5">
          <mxGeometry width="160" relative="1" as="geometry">
            <mxPoint x="350" y="-500" as="sourcePoint" />
            <mxPoint x="240" y="-500" as="targetPoint" />
          </mxGeometry>
        </mxCell>
        <mxCell id="wnnIdokzic-47sQOdaia-5" value="&lt;p style=&quot;margin:0px;margin-top:4px;text-align:center;&quot;&gt;&lt;b&gt;Screen&lt;/b&gt;&lt;/p&gt;&lt;hr size=&quot;1&quot;&gt;&lt;p style=&quot;margin:0px;margin-left:4px;&quot;&gt;+ ID: uint&lt;br&gt;+ ListofSeat : Seat&lt;/p&gt;&lt;hr size=&quot;1&quot;&gt;&lt;p style=&quot;margin:0px;margin-left:4px;&quot;&gt;+ method(): Type&lt;/p&gt;" style="verticalAlign=top;align=left;overflow=fill;fontSize=12;fontFamily=Helvetica;html=1;whiteSpace=wrap;" vertex="1" parent="1">
          <mxGeometry x="355" y="-550" width="160" height="170" as="geometry" />
        </mxCell>
        <mxCell id="wnnIdokzic-47sQOdaia-6" value="&lt;p style=&quot;margin:0px;margin-top:4px;text-align:center;&quot;&gt;&lt;b&gt;Theatre&lt;/b&gt;&lt;/p&gt;&lt;hr size=&quot;1&quot;&gt;&lt;p style=&quot;margin:0px;margin-left:4px;&quot;&gt;+ ID : uint&lt;br&gt;+ Name : string&lt;br&gt;+ Location : loc&lt;/p&gt;&lt;p style=&quot;margin:0px;margin-left:4px;&quot;&gt;+ Type : enum&lt;br&gt;+ ListScreen : Screen&lt;br&gt;+ ListSchedule : MovieSchedule&lt;/p&gt;&lt;hr size=&quot;1&quot;&gt;&lt;p style=&quot;margin:0px;margin-left:4px;&quot;&gt;+ method(): Type&lt;/p&gt;" style="verticalAlign=top;align=left;overflow=fill;fontSize=12;fontFamily=Helvetica;html=1;whiteSpace=wrap;" vertex="1" parent="1">
          <mxGeometry x="40" y="-560" width="200" height="210" as="geometry" />
        </mxCell>
        <mxCell id="wnnIdokzic-47sQOdaia-7" value="&lt;p style=&quot;margin:0px;margin-top:4px;text-align:center;&quot;&gt;&lt;b&gt;Seat&lt;/b&gt;&lt;/p&gt;&lt;hr size=&quot;1&quot;&gt;&lt;p style=&quot;margin:0px;margin-left:4px;&quot;&gt;+ ID: uint&lt;br&gt;+ Availability: Bool&lt;br&gt;- ClientID: int&amp;nbsp;&lt;/p&gt;&lt;hr size=&quot;1&quot;&gt;&lt;p style=&quot;margin:0px;margin-left:4px;&quot;&gt;+ method(): Type&lt;/p&gt;" style="verticalAlign=top;align=left;overflow=fill;fontSize=12;fontFamily=Helvetica;html=1;whiteSpace=wrap;" vertex="1" parent="1">
          <mxGeometry x="640" y="-550" width="160" height="120" as="geometry" />
        </mxCell>
        <mxCell id="wnnIdokzic-47sQOdaia-8" value="" style="endArrow=diamondThin;endFill=1;endSize=24;html=1;rounded=0;exitX=0.006;exitY=0.442;exitDx=0;exitDy=0;exitPerimeter=0;" edge="1" parent="1" source="wnnIdokzic-47sQOdaia-7">
          <mxGeometry width="160" relative="1" as="geometry">
            <mxPoint x="636" y="-500" as="sourcePoint" />
            <mxPoint x="520" y="-497" as="targetPoint" />
          </mxGeometry>
        </mxCell>
        <mxCell id="wnnIdokzic-47sQOdaia-9" value="&lt;p style=&quot;margin:0px;margin-top:4px;text-align:center;&quot;&gt;&lt;b&gt;Movie&lt;/b&gt;&lt;/p&gt;&lt;hr size=&quot;1&quot;&gt;&lt;p style=&quot;margin:0px;margin-left:4px;&quot;&gt;+ Availability: Bool&lt;br&gt;- ClientID: int&amp;nbsp;&lt;/p&gt;&lt;hr size=&quot;1&quot;&gt;&lt;p style=&quot;margin:0px;margin-left:4px;&quot;&gt;+ method(): Type&lt;/p&gt;" style="verticalAlign=top;align=left;overflow=fill;fontSize=12;fontFamily=Helvetica;html=1;whiteSpace=wrap;" vertex="1" parent="1">
          <mxGeometry x="355" y="-280" width="160" height="90" as="geometry" />
        </mxCell>
        <mxCell id="wnnIdokzic-47sQOdaia-10" value="&lt;p style=&quot;margin:0px;margin-top:4px;text-align:center;&quot;&gt;&lt;b&gt;MovieSchedule&lt;/b&gt;&lt;/p&gt;&lt;hr size=&quot;1&quot;&gt;&lt;p style=&quot;margin:0px;margin-left:4px;&quot;&gt;+ Availability: Bool&lt;br&gt;- ClientID: int&amp;nbsp;&lt;/p&gt;&lt;hr size=&quot;1&quot;&gt;&lt;p style=&quot;margin:0px;margin-left:4px;&quot;&gt;+ method(): Type&lt;/p&gt;" style="verticalAlign=top;align=left;overflow=fill;fontSize=12;fontFamily=Helvetica;html=1;whiteSpace=wrap;" vertex="1" parent="1">
          <mxGeometry x="60" y="-280" width="160" height="90" as="geometry" />
        </mxCell>
        <mxCell id="wnnIdokzic-47sQOdaia-11" value="" style="endArrow=diamondThin;endFill=1;endSize=24;html=1;rounded=0;exitX=0.5;exitY=0;exitDx=0;exitDy=0;entryX=0.5;entryY=1;entryDx=0;entryDy=0;" edge="1" parent="1" source="wnnIdokzic-47sQOdaia-10" target="wnnIdokzic-47sQOdaia-6">
          <mxGeometry width="160" relative="1" as="geometry">
            <mxPoint x="340" y="-390" as="sourcePoint" />
            <mxPoint x="500" y="-390" as="targetPoint" />
          </mxGeometry>
        </mxCell>
        <mxCell id="wnnIdokzic-47sQOdaia-12" value="" style="endArrow=diamondThin;endFill=0;endSize=24;html=1;rounded=0;exitX=0;exitY=0.5;exitDx=0;exitDy=0;entryX=1;entryY=0.5;entryDx=0;entryDy=0;" edge="1" parent="1" source="wnnIdokzic-47sQOdaia-9" target="wnnIdokzic-47sQOdaia-10">
          <mxGeometry width="160" relative="1" as="geometry">
            <mxPoint x="340" y="-410" as="sourcePoint" />
            <mxPoint x="500" y="-410" as="targetPoint" />
          </mxGeometry>
        </mxCell>
      </root>
    </mxGraphModel>
  </diagram>
</mxfile>
